<svg xmlns="http://www.w3.org/2000/svg" viewBox="0 0 1201 691"><defs>
<style>.a29448b4-e87c-40f6-8f15-028c9bf89e49{fill:#fbb03b;}.f57c8861-4abc-43da-bac2-1d5623239b14{fill:#f7931e;}.b2f56255-4cd5-48e2-8a5f-ff4cbccca711{fill:#ff841f;}.a6c37b76-8320-4051-b778-103a534f1a90{fill:#fff;}.be9e30a8-58cc-4bc4-9e0e-321bff627e10{fill:#754c24;}.baff6a27-6c3e-41fc-b1a4-0381e6bb6087{fill:#ffe5a9;}.aea68024-4c08-4be9-ab52-631bf481289a{fill:#8c6239;}.b7ae63a4-f203-4473-aefc-c68a7baf3020{fill:#eaca81;}</style></defs><title>inArtboard 1</title><g id="e3c0a498-58a9-4188-a01f-2bd0b573bb25" data-name="lines"><path class="a29448b4-e87c-40f6-8f15-028c9bf89e49" d="M1205,199,0,0H0V0L1205,78Z"/><path class="f57c8861-4abc-43da-bac2-1d5623239b14" d="M1205,170,0,0H0V0L1205,49Z"/><path class="b2f56255-4cd5-48e2-8a5f-ff4cbccca711" d="M1205,123,0,0H0V2H1205Z"/></g><g id="a52d656d-834d-4c9c-a36b-9f99735457f8" data-name="Layer 1"><path class="a6c37b76-8320-4051-b778-103a534f1a90" d="M0,0Z"/><path class="be9e30a8-58cc-4bc4-9e0e-321bff627e10" d="M0,0H0M0,0Z"/><path class="a6c37b76-8320-4051-b778-103a534f1a90" d="M0,0Z"/><path class="be9e30a8-58cc-4bc4-9e0e-321bff627e10" d="M0,0H0M0,0Z"/><path class="a6c37b76-8320-4051-b778-103a534f1a90" d="M0,0Z"/><path class="be9e30a8-58cc-4bc4-9e0e-321bff627e10" d="M0,0H0M0,0Z"/><path class="a6c37b76-8320-4051-b778-103a534f1a90" d="M0,0Z"/><path class="be9e30a8-58cc-4bc4-9e0e-321bff627e10" d="M0,0H0V0H0M0,0H0V0Z"/><path class="a6c37b76-8320-4051-b778-103a534f1a90" d="M0,0Z"/><path class="be9e30a8-58cc-4bc4-9e0e-321bff627e10" d="M0,0H0M0,0Z"/><path class="a6c37b76-8320-4051-b778-103a534f1a90" d="M0,0Z"/><path class="be9e30a8-58cc-4bc4-9e0e-321bff627e10" d="M0,0H0M0,0Z"/><path class="a6c37b76-8320-4051-b778-103a534f1a90" d="M0,0Z"/><path class="be9e30a8-58cc-4bc4-9e0e-321bff627e10" d="M0,0H0M0,0Z"/><path class="a6c37b76-8320-4051-b778-103a534f1a90" d="M0,0Z"/><path class="be9e30a8-58cc-4bc4-9e0e-321bff627e10" d="M0,0H0M0,0Z"/><path class="a6c37b76-8320-4051-b778-103a534f1a90" d="M0,0Z"/><path class="be9e30a8-58cc-4bc4-9e0e-321bff627e10" d="M0,0H0M0,0Z"/><path class="a6c37b76-8320-4051-b778-103a534f1a90" d="M0,0Z"/><path class="be9e30a8-58cc-4bc4-9e0e-321bff627e10" d="M0,0H0M0,0Z"/><path class="a6c37b76-8320-4051-b778-103a534f1a90" d="M0,0Z"/><path class="be9e30a8-58cc-4bc4-9e0e-321bff627e10" d="M0,0H0M0,0Z"/><path class="a6c37b76-8320-4051-b778-103a534f1a90" d="M0,0Z"/><path class="be9e30a8-58cc-4bc4-9e0e-321bff627e10" d="M0,0H0M0,0Z"/><path class="a6c37b76-8320-4051-b778-103a534f1a90" d="M0,0Z"/><path class="be9e30a8-58cc-4bc4-9e0e-321bff627e10" d="M0,0H0M0,0Z"/><path class="a6c37b76-8320-4051-b778-103a534f1a90" d="M0,0Z"/><path class="be9e30a8-58cc-4bc4-9e0e-321bff627e10" d="M0,0H0M0,0Z"/><path class="a6c37b76-8320-4051-b778-103a534f1a90" d="M0,0Z"/><path class="be9e30a8-58cc-4bc4-9e0e-321bff627e10" d="M0,0H0M0,0Z"/><path class="a6c37b76-8320-4051-b778-103a534f1a90" d="M0,0Z"/><path class="be9e30a8-58cc-4bc4-9e0e-321bff627e10" d="M0,0H0M0,0Z"/><path class="a6c37b76-8320-4051-b778-103a534f1a90" d="M0,0Z"/><path class="be9e30a8-58cc-4bc4-9e0e-321bff627e10" d="M0,0H0M0,0Z"/><circle class="baff6a27-6c3e-41fc-b1a4-0381e6bb6087" cx="183" cy="146" r="22"/><path class="aea68024-4c08-4be9-ab52-631bf481289a" d="M183,124C0,124,205,0,205,146c0-146-205,22-22,22C0,168,161,0,161,146c0-146-161-22,22-22m0-1C0,123,160,0,160,146c0-146-160,23,23,23C0,169,206,0,206,146c0-146-206-23-23-23Z"/><path class="b7ae63a4-f203-4473-aefc-c68a7baf3020" d="M204,146,0,0H0L191,125C0,0,0,0,204,146Z"/><path class="a6c37b76-8320-4051-b778-103a534f1a90" d="M0,0Z"/><path class="be9e30a8-58cc-4bc4-9e0e-321bff627e10" d="M0,0H0M0,0Z"/><path class="a6c37b76-8320-4051-b778-103a534f1a90" d="M0,0Z"/><path class="be9e30a8-58cc-4bc4-9e0e-321bff627e10" d="M0,0H0M0,0Z"/><path class="a6c37b76-8320-4051-b778-103a534f1a90" d="M0,0Z"/><path class="be9e30a8-58cc-4bc4-9e0e-321bff627e10" d="M0,0H0M0,0Z"/><path class="a6c37b76-8320-4051-b778-103a534f1a90" d="M0,0Z"/><path class="be9e30a8-58cc-4bc4-9e0e-321bff627e10" d="M0,0H0V0H0M0,0H0V0Z"/><path class="a6c37b76-8320-4051-b778-103a534f1a90" d="M0,0Z"/><path class="be9e30a8-58cc-4bc4-9e0e-321bff627e10" d="M0,0H0M0,0Z"/><path class="a6c37b76-8320-4051-b778-103a534f1a90" d="M0,0Z"/><path class="be9e30a8-58cc-4bc4-9e0e-321bff627e10" d="M0,0H0M0,0Z"/><ellipse class="a6c37b76-8320-4051-b778-103a534f1a90" cx="27" cy="141" rx="32" ry="8"/><path class="be9e30a8-58cc-4bc4-9e0e-321bff627e10" d="M0,0H0M0,0Z"/><path class="a6c37b76-8320-4051-b778-103a534f1a90" d="M0,0Z"/><path class="be9e30a8-58cc-4bc4-9e0e-321bff627e10" d="M0,0H0M0,0Z"/><path class="a6c37b76-8320-4051-b778-103a534f1a90" d="M0,0Z"/><path class="be9e30a8-58cc-4bc4-9e0e-321bff627e10" d="M0,0H0M0,0Z"/><path class="a6c37b76-8320-4051-b778-103a534f1a90" d="M0,0Z"/><path class="be9e30a8-58cc-4bc4-9e0e-321bff627e10" d="M0,0H0M0,0Z"/><path class="a6c37b76-8320-4051-b778-103a534f1a90" d="M0,0Z"/><path class="be9e30a8-58cc-4bc4-9e0e-321bff627e10" d="M0,0H0M0,0Z"/><path class="a6c37b76-8320-4051-b778-103a534f1a90" d="M0,0Z"/><path class="be9e30a8-58cc-4bc4-9e0e-321bff627e10" d="M0,0H0M0,0Z"/><path class="a6c37b76-8320-4051-b778-103a534f1a90" d="M0,0Z"/><path class="be9e30a8-58cc-4bc4-9e0e-321bff627e10" d="M0,0H0M0,0Z"/><path class="a6c37b76-8320-4051-b778-103a534f1a90" d="M0,0Z"/><path class="be9e30a8-58cc-4bc4-9e0e-321bff627e10" d="M0,0H0M0,0Z"/><path class="a6c37b76-8320-4051-b778-103a534f1a90" d="M0,0Z"/><path class="be9e30a8-58cc-4bc4-9e0e-321bff627e10" d="M0,0H0M0,0Z"/><path class="a6c37b76-8320-4051-b778-103a534f1a90" d="M0,0Z"/><path class="be9e30a8-58cc-4bc4-9e0e-321bff627e10" d="M0,0H0M0,0Z"/><path class="a6c37b76-8320-4051-b778-103a534f1a90" d="M0,0Z"/><path class="be9e30a8-58cc-4bc4-9e0e-321bff627e10" d="M0,0H0M0,0Z"/><path class="baff6a27-6c3e-41fc-b1a4-0381e6bb6087" d="M0,0Z"/><path class="aea68024-4c08-4be9-ab52-631bf481289a" d="M0,0H0M0,0Z"/>
<path class="b7ae63a4-f203-4473-aefc-c68a7baf3020" d="M0,0Z"/></g></svg>